<svg xmlns="http://www.w3.org/2000/svg" xmlns:xlink="http://www.w3.org/1999/xlink" id="Layer_1" width="365.914" height="422.529" x="0" y="0" enable-background="new 0 0 365.914 422.529" version="1.1" viewBox="0 0 365.914 422.529" xml:space="preserve"><g><g><polygon points="365.914 316.902 182.952 422.529 0 316.902 0 105.631 182.952 0 365.914 105.631"/><path fill="#FFF" d="M317.97,205.658l-67.784-67.784l-11.908,11.909l55.899,55.897h-11.05h-40.693h-12.438h-34.841h-24.392 H135.92h-23.271H82.79H71.741l55.897-55.897l-11.909-11.909l-67.782,67.784l0.021,0.022h-0.021v34.843v4.646v4.644 c0,19.165,15.679,34.837,34.842,34.837h53.13c19.164,0,34.843-15.672,34.843-34.837v-4.644v-4.646V222.52h24.392v18.003v4.646 v4.644c0,19.165,15.679,34.837,34.841,34.837h53.132c19.162,0,34.842-15.672,34.842-34.837v-4.644v-4.646V205.68h-0.022 L317.97,205.658z"/></g></g></svg>